<svg width="169" height="37" viewBox="0 0 169 37" fill="none" xmlns="http://www.w3.org/2000/svg">
    <rect y="1.28186" width="83.9139" height="34.5122" rx="1.47909" fill="#161616"/>
    <path d="M27.9302 27L22.1125 19.358V27H17.897V9.6946H22.1125V17.2873L27.8809 9.6946H32.8359L26.1307 18.1747L33.0824 27H27.9302ZM50.5669 27H46.3515L39.3012 16.3259V27H35.0857V9.6946H39.3012L46.3515 20.418V9.6946H50.5669V27ZM66.8111 15.2659C66.8111 16.2684 66.5811 17.1887 66.1209 18.0268C65.6607 18.8485 64.9541 19.5141 64.0009 20.0236C63.0477 20.5331 61.8644 20.7878 60.451 20.7878H57.838V27H53.6226V9.6946H60.451C61.8315 9.6946 62.9984 9.9329 63.9516 10.4095C64.9048 10.8861 65.6197 11.5435 66.0963 12.3816C66.5728 13.2198 66.8111 14.1812 66.8111 15.2659ZM60.1306 17.4352C60.9359 17.4352 61.5357 17.2462 61.9301 16.8682C62.3246 16.4902 62.5218 15.9561 62.5218 15.2659C62.5218 14.5756 62.3246 14.0415 61.9301 13.6635C61.5357 13.2855 60.9359 13.0965 60.1306 13.0965H57.838V17.4352H60.1306Z" fill="white"/>
    <path d="M110.365 9.6946V27H106.15V16.6217L102.279 27H98.8775L94.9826 16.597V27H90.7672V9.6946H95.7468L100.603 21.6753L105.41 9.6946H110.365ZM126.363 19.9003C126.363 20.2948 126.339 20.7056 126.289 21.1329H116.749C116.815 21.9875 117.086 22.6449 117.563 23.1051C118.056 23.5488 118.656 23.7706 119.362 23.7706C120.414 23.7706 121.145 23.3269 121.556 22.4395H126.043C125.813 23.3434 125.394 24.1569 124.786 24.88C124.194 25.6031 123.446 26.1701 122.542 26.5809C121.638 26.9918 120.628 27.1972 119.51 27.1972C118.163 27.1972 116.963 26.9096 115.911 26.3344C114.859 25.7592 114.037 24.9375 113.446 23.8693C112.854 22.801 112.558 21.552 112.558 20.1222C112.558 18.6924 112.846 17.4434 113.421 16.3752C114.013 15.3069 114.835 14.4852 115.886 13.91C116.938 13.3348 118.146 13.0472 119.51 13.0472C120.841 13.0472 122.025 13.3266 123.06 13.8854C124.095 14.4441 124.901 15.2412 125.476 16.2766C126.067 17.3119 126.363 18.5199 126.363 19.9003ZM122.049 18.791C122.049 18.0679 121.803 17.4927 121.31 17.0654C120.817 16.6381 120.2 16.4245 119.461 16.4245C118.754 16.4245 118.154 16.6299 117.661 17.0408C117.185 17.4516 116.889 18.035 116.774 18.791H122.049ZM127.749 20.0976C127.749 18.6842 128.012 17.4434 128.538 16.3752C129.08 15.3069 129.811 14.4852 130.732 13.91C131.652 13.3348 132.679 13.0472 133.813 13.0472C134.717 13.0472 135.539 13.2362 136.278 13.6142C137.034 13.9922 137.626 14.5017 138.053 15.1426V8.75784H142.269V27H138.053V25.0279C137.659 25.6852 137.092 26.2111 136.352 26.6056C135.629 27 134.783 27.1972 133.813 27.1972C132.679 27.1972 131.652 26.9096 130.732 26.3344C129.811 25.7428 129.08 24.9128 128.538 23.8446C128.012 22.7599 127.749 21.5109 127.749 20.0976ZM138.053 20.1222C138.053 19.0704 137.757 18.2405 137.166 17.6324C136.591 17.0243 135.884 16.7203 135.046 16.7203C134.208 16.7203 133.493 17.0243 132.901 17.6324C132.326 18.224 132.038 19.0458 132.038 20.0976C132.038 21.1494 132.326 21.9875 132.901 22.612C133.493 23.2201 134.208 23.5241 135.046 23.5241C135.884 23.5241 136.591 23.2201 137.166 22.612C137.757 22.0039 138.053 21.174 138.053 20.1222ZM147.438 11.8146C146.699 11.8146 146.091 11.601 145.614 11.1737C145.154 10.73 144.924 10.1876 144.924 9.54669C144.924 8.88932 145.154 8.34698 145.614 7.91969C146.091 7.47596 146.699 7.25409 147.438 7.25409C148.162 7.25409 148.753 7.47596 149.213 7.91969C149.69 8.34698 149.928 8.88932 149.928 9.54669C149.928 10.1876 149.69 10.73 149.213 11.1737C148.753 11.601 148.162 11.8146 147.438 11.8146ZM149.534 13.2444V27H145.318V13.2444H149.534ZM151.751 20.0976C151.751 18.6842 152.013 17.4434 152.539 16.3752C153.082 15.3069 153.813 14.4852 154.733 13.91C155.654 13.3348 156.681 13.0472 157.815 13.0472C158.784 13.0472 159.631 13.2444 160.354 13.6389C161.093 14.0333 161.66 14.551 162.055 15.1919V13.2444H166.27V27H162.055V25.0525C161.644 25.6935 161.069 26.2111 160.329 26.6056C159.606 27 158.76 27.1972 157.79 27.1972C156.673 27.1972 155.654 26.9096 154.733 26.3344C153.813 25.7428 153.082 24.9128 152.539 23.8446C152.013 22.7599 151.751 21.5109 151.751 20.0976ZM162.055 20.1222C162.055 19.0704 161.759 18.2405 161.167 17.6324C160.592 17.0243 159.886 16.7203 159.047 16.7203C158.209 16.7203 157.494 17.0243 156.903 17.6324C156.327 18.224 156.04 19.0458 156.04 20.0976C156.04 21.1494 156.327 21.9875 156.903 22.612C157.494 23.2201 158.209 23.5241 159.047 23.5241C159.886 23.5241 160.592 23.2201 161.167 22.612C161.759 22.0039 162.055 21.174 162.055 20.1222Z" fill="#161616"/>
</svg>
