<svg width="350" height="350" viewBox="0 0 350 350" fill="none" xmlns="http://www.w3.org/2000/svg">
<rect width="350" height="350" rx="8.86604" fill="#161616"/>
<path d="M90.4201 227L55.547 181.192V227H30.2788V123.267H55.547V168.78L90.1245 123.267H119.826L79.633 174.099L121.303 227H90.4201ZM226.11 227H200.842L158.58 163.017V227H133.312V123.267H158.58L200.842 187.546V123.267H226.11V227ZM323.481 156.663C323.481 162.672 322.102 168.189 319.344 173.213C316.586 178.138 312.35 182.128 306.636 185.182C300.922 188.236 293.829 189.763 285.357 189.763H269.694V227H244.426V123.267H285.357C293.632 123.267 300.627 124.696 306.34 127.553C312.054 130.409 316.339 134.35 319.196 139.374C322.053 144.398 323.481 150.161 323.481 156.663ZM283.437 169.666C288.264 169.666 291.859 168.533 294.224 166.268C296.588 164.002 297.77 160.8 297.77 156.663C297.77 152.525 296.588 149.324 294.224 147.058C291.859 144.792 288.264 143.659 283.437 143.659H269.694V169.666H283.437Z" fill="white"/>
</svg>
